<svg version="1.1" xmlns="http://www.w3.org/2000/svg" viewBox="-10.950372989879918 -10.950860740406409 21.900745979759837 21.901721480812817" fill="none" stroke="black" stroke-width="0.6%" vector-effect="non-scaling-stroke">
    <path d="M 0 9.95086 L 4.47767 5.51731" />
    <path d="M 4.47767 -4.43355 L 4.47767 5.51731" />
    <path d="M 0 0 L 4.47767 -4.43355" />
    <path d="M 0 9.95086 L 0 0" />
    <path d="M -9.95037 9.85234 L 0 9.95086" />
    <path d="M -5.4727 -4.53207 L 4.47767 -4.43355" />
    <path d="M -9.95037 -0.09852 L 0 0" />
    <path d="M -5.4727 -4.53207 L -9.95037 -0.09852" />
    <path d="M -9.95037 9.85234 L -9.95037 -0.09852" />
    <path d="M 5.4727 4.53207 L 9.95037 0.09852 L 9.95037 -9.85234 L 0 -9.95086 L -4.47767 -5.51731 L -4.47767 -4.52222" />
    <path d="M 5.4727 -5.41878 L 9.95037 -9.85234" />
    <path d="M 5.4727 4.53207 L 5.4727 -5.41878 L -4.47767 -5.51731" />
    <path d="M 5.4727 4.53207 L 4.47767 4.52222" />
</svg>